<svg version="1.1" viewBox="0.0 0.0 960.0 540.0" fill="none" stroke="none" stroke-linecap="square" stroke-miterlimit="10" xmlns:xlink="http://www.w3.org/1999/xlink" xmlns="http://www.w3.org/2000/svg"><clipPath id="p.0"><path d="m0 0l960.0 0l0 540.0l-960.0 0l0 -540.0z" clip-rule="nonzero"/></clipPath><g clip-path="url(#p.0)"><path fill="#b7e8fd" d="m0 0l960.0 0l0 540.0l-960.0 0z" fill-rule="evenodd"/><path fill="#000000" fill-opacity="0.0" d="m178.47989 203.36482c-12.012894 32.021255 -13.769348 74.78075 6.3989563 102.401596c19.812805 27.133972 56.817703 42.716827 68.0 74.398926c3.52005 9.973206 -15.822769 17.601074 -26.398956 17.601074" fill-rule="evenodd"/><path stroke="#ffffff" stroke-width="1.0" stroke-linejoin="round" stroke-linecap="butt" d="m178.47989 203.36482c-12.012894 32.021255 -13.769348 74.78075 6.3989563 102.401596c19.812805 27.133972 56.817703 42.716827 68.0 74.398926c3.52005 9.973206 -15.822769 17.601074 -26.398956 17.601074" fill-rule="evenodd"/><path fill="#000000" fill-opacity="0.0" d="m346.48154 168.96588c0 17.464188 -11.725433 35.367065 -6.401581 52.0c6.454834 20.166351 23.97757 35.150513 32.800537 54.398956c6.675293 14.562988 4.6650696 32.140686 2.4015503 48.0c-1.0723877 7.513855 -0.8868103 17.39087 -7.2020874 21.601044" fill-rule="evenodd"/><path stroke="#ffffff" stroke-width="1.0" stroke-linejoin="round" stroke-linecap="butt" d="m346.48154 168.96588c0 17.464188 -11.725433 35.367065 -6.401581 52.0c6.454834 20.166351 23.97757 35.150513 32.800537 54.398956c6.675293 14.562988 4.6650696 32.140686 2.4015503 48.0c-1.0723877 7.513855 -0.8868103 17.39087 -7.2020874 21.601044" fill-rule="evenodd"/><path fill="#000000" fill-opacity="0.0" d="m418.48032 224.96588c-22.40683 8.403122 -47.605804 8.173035 -69.60104 17.601044c-9.571442 4.1026917 -13.586334 20.0 -24.0 20.0" fill-rule="evenodd"/><path stroke="#ffffff" stroke-width="1.0" stroke-linejoin="round" stroke-linecap="butt" d="m418.48032 224.96588c-22.40683 8.403122 -47.605804 8.173035 -69.60104 17.601044c-9.571442 4.1026917 -13.586334 20.0 -24.0 20.0" fill-rule="evenodd"/><path fill="#000000" fill-opacity="0.0" d="m76.07789 48.965878c-28.856712 10.306454 -66.93254 54.305553 -48.0 78.39896c6.151764 7.828682 18.45385 7.5725327 28.0 10.401573c18.580154 5.506317 34.29637 19.098251 48.0 32.80052c6.17688 6.1762695 15.211769 13.813751 13.601051 22.398956c-2.9520645 15.73465 -25.705803 22.0934 -41.60105 24.0c-8.737022 1.0479889 -21.873024 -7.546509 -26.398949 0c-7.417679 12.36821 -1.0993538 29.208176 2.3989487 43.199463c4.256588 17.024017 2.8005066 37.98642 15.202103 50.40158c4.7452393 4.7504272 15.662445 -2.72641 20.0 2.3989563c5.504318 6.504059 7.1275787 15.644745 8.797897 24.0c2.0679245 10.344147 0.24868774 24.973358 -8.797897 30.398956c-8.931297 5.356415 -22.870186 -4.6470337 -31.202103 1.6010437c-12.21867 9.16275 -15.177643 26.867523 -19.199474 41.601044c-1.9180222 7.0264587 2.2873573 16.739868 8.800526 20.0c11.684467 5.848633 27.51117 -5.8409424 39.19947 0c10.125458 5.059967 6.7150497 21.672302 8.8005295 32.797913c1.6704559 8.91153 -15.016335 14.0251465 -24.0 12.800507c-10.040131 -1.3686218 -26.990719 -9.542603 -30.398952 0c-4.3949203 12.305206 -11.205721 32.479004 0 39.199463c8.03352 4.818054 19.966484 -7.216919 28.000004 -2.3989258c2.2873611 1.3718262 -4.0162315 3.6071777 -6.401577 4.800537c-6.259926 3.1316528 -13.000423 6.398926 -20.0 6.398926" fill-rule="evenodd"/><path stroke="#595959" stroke-width="1.0" stroke-linejoin="round" stroke-linecap="butt" d="m76.07789 48.965878c-28.856712 10.306454 -66.93254 54.305553 -48.0 78.39896c6.151764 7.828682 18.45385 7.5725327 28.0 10.401573c18.580154 5.506317 34.29637 19.098251 48.0 32.80052c6.17688 6.1762695 15.211769 13.813751 13.601051 22.398956c-2.9520645 15.73465 -25.705803 22.0934 -41.60105 24.0c-8.737022 1.0479889 -21.873024 -7.546509 -26.398949 0c-7.417679 12.36821 -1.0993538 29.208176 2.3989487 43.199463c4.256588 17.024017 2.8005066 37.98642 15.202103 50.40158c4.7452393 4.7504272 15.662445 -2.72641 20.0 2.3989563c5.504318 6.504059 7.1275787 15.644745 8.797897 24.0c2.0679245 10.344147 0.24868774 24.973358 -8.797897 30.398956c-8.931297 5.356415 -22.870186 -4.6470337 -31.202103 1.6010437c-12.21867 9.16275 -15.177643 26.867523 -19.199474 41.601044c-1.9180222 7.0264587 2.2873573 16.739868 8.800526 20.0c11.684467 5.848633 27.51117 -5.8409424 39.19947 0c10.125458 5.059967 6.7150497 21.672302 8.8005295 32.797913c1.6704559 8.91153 -15.016335 14.0251465 -24.0 12.800507c-10.040131 -1.3686218 -26.990719 -9.542603 -30.398952 0c-4.3949203 12.305206 -11.205721 32.479004 0 39.199463c8.03352 4.818054 19.966484 -7.216919 28.000004 -2.3989258c2.2873611 1.3718262 -4.0162315 3.6071777 -6.401577 4.800537c-6.259926 3.1316528 -13.000423 6.398926 -20.0 6.398926" fill-rule="evenodd"/></g></svg>