<?xml version="1.0" encoding="UTF-8"?>
<svg viewBox="0 0 128 174.03" xmlns="http://www.w3.org/2000/svg" xmlns:xlink="http://www.w3.org/1999/xlink">
 <defs>
  <linearGradient id="ae" x1=".21601" x2=".6587" y1=".4771" y2=".50577" xlink:href="#u"/>
  <linearGradient id="al" x1=".49996" x2=".34937" y1=".49989" y2=".87278" xlink:href="#a"/>
  <linearGradient id="ad" x1=".4997" x2="-.032121" y1=".5001" y2="1.0724" xlink:href="#a"/>
  <linearGradient id="ab" x1=".49984" x2=".57151" y1=".50001" y2="1.0917" xlink:href="#a"/>
  <linearGradient id="ac" x1=".50002" x2=".34952" y1=".50002" y2=".87291" xlink:href="#a"/>
  <linearGradient id="af" x1="1.4233" x2="-7.8e-5" y1=".44233" y2=".66307" xlink:href="#u"/>
  <linearGradient id="ak" x1=".50002" x2=".57162" y1=".5" y2="1.0917" xlink:href="#a"/>
  <linearGradient id="ag" x1=".87069" x2=".3768" y1=".60048" y2=".33786">
   <stop stop-color="#945f08" offset="0"/>
   <stop stop-color="#e0b064" offset="1"/>
  </linearGradient>
  <linearGradient id="v" x1="1.5274" x2="-.076409" y1=".50004" y2="1.0724" xlink:href="#a"/>
  <linearGradient id="ai" x1=".49988" x2=".32418" y1=".50008" y2=".77863" xlink:href="#a"/>
  <linearGradient id="ah" x1=".4627" x2=".40429" y1=".63732" y2=".17329">
   <stop stop-color="#d3d7cf" offset="0"/>
   <stop stop-color="#d3d7cf" stop-opacity="0" offset="1"/>
  </linearGradient>
  <linearGradient id="aj" x1=".49991" x2=".33952" y1=".49996" y2=".82558" xlink:href="#a"/>
  <linearGradient id="a">
   <stop stop-color="#babdb6" offset="0"/>
   <stop stop-color="#888a85" offset="1"/>
  </linearGradient>
  <linearGradient id="u">
   <stop stop-color="#9f6a15" offset="0"/>
   <stop stop-color="#9f6a15" stop-opacity="0" offset="1"/>
  </linearGradient>
  <linearGradient id="aa" x1=".49987" x2=".33939" y1=".49994" y2=".82546" xlink:href="#a"/>
  <linearGradient id="z" x1=".50012" x2=".32441" y1=".49998" y2=".77853" xlink:href="#a"/>
  <linearGradient id="y" x1=".99993" x2=".26469" y1=".75122" y2="-.10267">
   <stop stop-color="#8f5902" offset="0"/>
   <stop stop-color="#8f5902" stop-opacity=".02" offset="1"/>
  </linearGradient>
  <linearGradient id="x" x1=".5217" x2=".5217" y1=".54288" y2=".92405">
   <stop stop-color="#e9b96e" offset="0"/>
   <stop stop-color="#e9b96e" stop-opacity="0" offset="1"/>
  </linearGradient>
  <linearGradient id="w" x1=".38771" x2=".75289" y1=".27996" y2=".80006">
   <stop stop-color="#e9b96e" offset="0"/>
   <stop stop-color="#8f5902" offset="1"/>
  </linearGradient>
  <radialGradient id="am" cx="164.42" cy="304.79" r="16.5" gradientTransform="matrix(.50711 1.2372e-7 -1.5372e-7 .63005 -18.488 59.219)" gradientUnits="userSpaceOnUse">
   <stop stop-color="#ffffc0" offset="0"/>
   <stop stop-color="#ffffc0" stop-opacity="0" offset="1"/>
  </radialGradient>
 </defs>
 <path d="m72.86 116.33s-58.424 1.2502-45.593 7.4489c10.059 4.8594 26.04 6.9694 15.699 9.527 0 0-100.21 34.687 10.247 40.09 86.727 5.6127 99.713-27.264 22.655-40.346 0.94005-5.307 29.894-17.2-3.0082-16.72z" fill="url(#ah)"/>
 <path d="m72.86 1.3574s-58.424 3.6761-45.593 21.903c10.059 14.289 26.04 20.493 15.699 28.014 0 0-100.21 102 10.247 117.88 86.727 16.504 99.713-80.168 22.655-118.64 0.94005-15.605 29.894-50.575-3.0082-49.165z" fill="url(#w)" stroke="#c17d11" stroke-width="2.632"/>
 <path d="m38.816 70.907c-15.171 0.315-53.047 66.517-11.685 85.788-13.631-27.262 3.9102-74.047 11.685-85.788z" fill="url(#x)"/>
 <path d="m81.326 54.379c-0.25584 0.59622-0.47874 1.1611-0.65804 1.7274 34.702 30.636 42.357 70.802 30.763 98.541 23.558-24.934 14.963-73.198-30.105-100.27z" fill="url(#y)"/>
 <path d="m36.827 9.2474c-1.5114 0.27199-6.129 2.9392-7.3674 3.7914-1.7855 1.4347-3.9271 3.3514-3.5713 5.893 0.48311 2.7715 2.5389 4.8907 4.2615 6.989 3.816 4.2598 7.8006 8.3772 11.981 12.28 1.1134 1.0127 2.2976 2.1027 3.8607 2.2154 0.95761 1.2956 2.7074 0.91888 4.1299 0.88501 1.1464-0.21835 3.1743 0.40491 3.6792 0.35294-7.6274-10.443-25.066-24.088-16.974-32.407z" fill="url(#ae)"/>
 <path d="m81.728 2.9995c-6.0938 13-12.188 26-18.281 39 1.6876 0.23181 3.054-1.2057 4.9149-0.80237 1.6015-0.091583 3.3428 0.18237 4.818-0.57245 1.099-1.3962 3.1552-0.47214 4.3711-1.6669 2.0951-2.0371 3.0146-4.924 4.2085-7.5208 2.2489-5.5606 4.7443-11.088 5.997-16.981 0.54222-2.9295 0.52358-6.2774-1.2796-8.7902-1.1712-1.4348-2.9827-2.2493-4.7487-2.6662z" fill="url(#af)"/>
 <path d="m78.201 1.686c-3.7806-0.057999-7.6113-0.67819-11.348 0.18611-12.521 1.3312-22.823 2.0201-32.096 10.99-1.5778 10.35 19.408 7.6775 25.065 5.9702 5.3284-2.3439 16.258-5.1126 14.985-12.874-6.4312-4.4827-20.41 1.2327-27.216 3.0235" fill="url(#ag)" stroke="#c17d11" stroke-width="2.62"/>
 <path d="m62.77 145.55c-0.32806 0.32806-7.0528-5.6296-7.4907-5.4763-0.43791 0.15323-1.981 9.0039-2.442 8.952-0.46103-0.051926 0.004272-9.0241-0.38883-9.2709-0.39284-0.24684-8.2747 4.065-8.5215 3.6722-0.24684-0.39285 7.0578-5.6233 7.0059-6.0843-0.051918-0.46104-8.3373-3.9349-8.1841-4.3728 0.15323-0.43793 8.7969 2.012 9.125 1.6839 0.32806-0.32806-2.1218-8.9718-1.6839-9.125 0.43791-0.15324 3.9118 8.1322 4.3728 8.1841 0.46102 0.05191 5.6915-7.2527 6.0843-7.0059 0.39284 0.24683-3.919 8.1287-3.6722 8.5215 0.24684 0.39282 9.219-0.07222 9.2709 0.38882 0.051903 0.46103-8.7987 2.0041-8.952 2.4421-0.15323 0.43791 5.8044 7.1627 5.4763 7.4907z" fill="url(#am)"/>
 <g stroke-linejoin="round">
  <path d="m77.688 42.335c-0.26251 0.15173-0.47716 0.37421-0.5625 0.65625l-0.25 0.8125-2.5-0.34375c-0.5041-0.065216-1.0816 0.26593-1.3125 0.71875l-4.3125 8.4062c-0.23094 0.45282-0.003998 0.87228 0.5 0.9375l2.9688 0.40625c0.50409 0.065186 1.1128-0.26593 1.3438-0.71875l1.125-2.1875-0.28125 0.875c-0.14487 0.4787 0.15611 0.875 0.65625 0.875h2.2812c0.50012 0 1.0114-0.3963 1.1562-0.875l0.3125-1c-0.91296-0.48612-1.8415-0.96838-2.7812-1.4375 0.1248-2.0719 0.7541-4.5008 1.6562-7.125zm-31.562 0.9375c0.92548 2.38 0.26268 4.5874-2.9688 6.9375 0 0-1.3873 1.4244-3.4375 3.6875h2.8438c0.4781 0 0.99031-0.32089 1.2188-0.75l-0.625 1.2188c-0.24515 0.4787-0.007004 0.875 0.53125 0.875h5c0.53781 0 1.1611-0.3963 1.4062-0.875l4.5625-8.9062c0.24513-0.4787 0.007004-0.875-0.53125-0.875h-5c-0.53781 0-1.1611 0.3963-1.4062 0.875l-3.8125 7.4688 3.5312-8.8125c0.19319-0.4787-0.077499-0.84375-0.59375-0.84375h-0.71875zm19.875 1.5938c-0.53781 0-1.1924 0.36505-1.4375 0.84375l-4.5625 8.9062c-0.24515 0.4787-0.007004 0.875 0.53125 0.875h5c0.53781 0 1.1611-0.3963 1.4062-0.875l4.5625-8.9062c0.24513-0.4787 0.007004-0.84375-0.53125-0.84375h-4.9688zm-9.1875 0.5625c-0.54832 0-1.2014 0.3963-1.4688 0.875l-4.9688 8.9062c-0.26741 0.4787-0.048309 0.84375 0.5 0.84375h5.5938c0.54831 0 1.2013-0.36505 1.4688-0.84375l4.9688-8.9062c0.2674-0.4787 0.048294-0.875-0.5-0.875h-5.5938z" fill="#2e3436" opacity=".301" stroke="#2e3436" stroke-width="1.538"/>
  <g stroke="#888a85">
   <rect transform="matrix(1 0 -.45581 .89008 0 0)" x="86.092" y="47.652" width="6.9239" height="11.953" rx=".97078" ry=".97078" fill="url(#z)" stroke-width="1.63"/>
   <rect transform="matrix(1 0 -.48767 .87303 0 0)" x="79.206" y="49.241" width="7.5526" height="12.187" rx=".98974" ry=".98974" fill="url(#aa)" stroke-width="1.646"/>
   <rect transform="matrix(1 0 -.28966 .95713 0 0)" x="88.742" y="41.474" width="4.0918" height="11.116" rx=".90277" ry=".90277" fill="url(#v)" stroke-width="1.572"/>
   <rect transform="matrix(.99174 .12828 -.45433 .89083 0 0)" x="88.628" y="33.163" width="4.8283" height="11.297" rx=".91751" ry=".91751" fill="url(#ab)" stroke-width="1.585"/>
   <rect transform="matrix(1 0 -.45581 .89008 0 0)" x="69.107" y="47.355" width="6.9239" height="11.953" rx=".97078" ry=".97078" fill="url(#ac)" stroke-width="1.63"/>
   <rect transform="matrix(1 0 -.37427 .92732 0 0)" x="58.149" y="44.025" width="5.457" height="11.473" rx=".93179" ry=".93179" fill="url(#ad)" stroke-width="1.597"/>
  </g>
  <path d="m79.412 55.607c-0.042999 0.37799 0.185 0.80798 0.526 0.97498l6.348 3.128c0.342 0.168 0.646 0.007996 0.689-0.36902l0.263-2.228c0.042999-0.37799-0.19099-0.83798-0.533-1.005l-2.668-1.288 0.541 0.141c0.36 0.10303 0.638-0.11099 0.632-0.48498l-5.798 1.131zm2.192 2.507c-0.116 0.072998-0.17 0.21799-0.16699 0.41901l0.054 3.726c0.005997 0.40201 0.30699 0.862 0.668 1.04l6.705 3.308c0.36101 0.17798 0.658 0.009003 0.65201-0.393l-0.054-3.726c-0.005997-0.40201-0.30701-0.86301-0.668-1.041l-6.712-3.338c-0.17999-0.088989-0.362-0.067993-0.478 0.005005zm1.636 6.521c-0.116 0.071014-0.17 0.21399-0.16701 0.41901l0.053 4.173c0.005997 0.41 0.31999 0.90799 0.681 1.102l6.709 3.627c0.36099 0.194 0.657 0.015991 0.651-0.39401l-0.053-4.173c-0.005997-0.41-0.319-0.90698-0.67999-1.102l-6.709-3.626c-0.181-0.097992-0.369-0.096008-0.485-0.026001zm-0.81 6.433c-0.23201-0.005005-0.386 0.16199-0.381 0.46399l0.061 3.756c0.006012 0.40198 0.306 0.86298 0.66701 1.041l6.705 3.308c0.36099 0.177 0.65199-0.022003 0.64499-0.42401l-0.054-3.726c-0.005997-0.40298-0.306-0.86298-0.66699-1.041l-6.706-3.308c-0.090012-0.043976-0.19301-0.069-0.27-0.069977z" fill="#2e3436" opacity=".365" stroke="#2e3436" stroke-width="1.538"/>
  <g transform="matrix(.14367 -.7341 .7341 .14367 -51.284 325.63)" stroke="#888a85">
   <rect transform="matrix(1 0 -.45581 .89008 0 0)" x="438.62" y="112.59" width="6.9239" height="11.953" rx=".97078" ry=".97078" fill="url(#ai)" stroke-width="2.179"/>
   <rect transform="matrix(1 0 -.48767 .87303 0 0)" x="435.06" y="117.15" width="7.5526" height="12.187" rx=".98974" ry=".98974" fill="url(#aj)" stroke-width="2.2"/>
   <rect transform="matrix(1 0 -.28966 .95713 0 0)" x="429.58" y="98.967" width="4.0918" height="11.116" rx=".90277" ry=".90277" fill="url(#v)" stroke-width="2.101"/>
   <rect transform="matrix(.99174 .12828 -.45433 .89083 0 0)" x="421.87" y="48.637" width="4.8283" height="11.297" rx=".91751" ry=".91751" fill="url(#ak)" stroke-width="2.119"/>
   <rect transform="matrix(1 0 -.45581 .89008 0 0)" x="421.5" y="113.23" width="6.9239" height="11.953" rx=".97078" ry=".97078" fill="url(#al)" stroke-width="2.179"/>
  </g>
 </g>
</svg>
