<svg version="1.1" viewBox="0.0 0.0 960.0 540.0" fill="none" stroke="none" stroke-linecap="square" stroke-miterlimit="10" xmlns:xlink="http://www.w3.org/1999/xlink" xmlns="http://www.w3.org/2000/svg"><clipPath id="p.0"><path d="m0 0l960.0 0l0 540.0l-960.0 0l0 -540.0z" clip-rule="nonzero"/></clipPath><g clip-path="url(#p.0)"><path fill="#9fc5e8" d="m0 0l960.0 0l0 540.0l-960.0 0z" fill-rule="evenodd"/><path fill="#c6d8e2" d="m301.27298 534.084l242.28348 -478.64566l242.28345 478.64566z" fill-rule="evenodd"/><path stroke="#595959" stroke-width="1.0" stroke-linejoin="round" stroke-linecap="butt" d="m301.27298 534.084l242.28348 -478.64566l242.28345 478.64566z" fill-rule="evenodd"/><path fill="#c6d8e2" d="m511.16797 539.9869l189.77954 -374.70868l189.77954 374.70868z" fill-rule="evenodd"/><path stroke="#595959" stroke-width="1.0" stroke-linejoin="round" stroke-linecap="butt" d="m511.16797 539.9869l189.77954 -374.70868l189.77954 374.70868z" fill-rule="evenodd"/><path fill="#c6d8e2" d="m55.13834 540.0105l265.29135 -410.36218l265.29132 410.36218z" fill-rule="evenodd"/><path stroke="#595959" stroke-width="1.0" stroke-linejoin="round" stroke-linecap="butt" d="m55.13834 540.0105l265.29135 -410.36218l265.29132 410.36218z" fill-rule="evenodd"/><path fill="#9eb299" d="m511.16797 408.7454l0 0c0 -57.394104 69.5686 -103.921234 155.38586 -103.921234l0 0c85.8172 0 155.3858 46.52713 155.3858 103.921234l0 0c0 57.394135 -69.5686 103.921295 -155.3858 103.921295l0 0c-85.81726 0 -155.38586 -46.52716 -155.38586 -103.921295z" fill-rule="evenodd"/><path stroke="#595959" stroke-width="1.0" stroke-linejoin="round" stroke-linecap="butt" d="m511.16797 408.7454l0 0c0 -57.394104 69.5686 -103.921234 155.38586 -103.921234l0 0c85.8172 0 155.3858 46.52713 155.3858 103.921234l0 0c0 57.394135 -69.5686 103.921295 -155.3858 103.921295l0 0c-85.81726 0 -155.38586 -46.52716 -155.38586 -103.921295z" fill-rule="evenodd"/><path fill="#9eb299" d="m733.51184 424.18896l0 0c0 -57.394104 69.5686 -103.921234 155.3858 -103.921234l0 0c85.8172 0 155.3858 46.52713 155.3858 103.921234l0 0c0 57.394135 -69.5686 103.921265 -155.3858 103.921265l0 0c-85.8172 0 -155.3858 -46.52713 -155.3858 -103.921265z" fill-rule="evenodd"/><path stroke="#595959" stroke-width="1.0" stroke-linejoin="round" stroke-linecap="butt" d="m733.51184 424.18896l0 0c0 -57.394104 69.5686 -103.921234 155.3858 -103.921234l0 0c85.8172 0 155.3858 46.52713 155.3858 103.921234l0 0c0 57.394135 -69.5686 103.921265 -155.3858 103.921265l0 0c-85.8172 0 -155.3858 -46.52713 -155.3858 -103.921265z" fill-rule="evenodd"/><path fill="#c6d8e2" d="m-27.217848 540.00696l213.88977 -331.4961l213.88976 331.4961z" fill-rule="evenodd"/><path stroke="#595959" stroke-width="1.0" stroke-linejoin="round" stroke-linecap="butt" d="m-27.217848 540.00696l213.88977 -331.4961l213.88976 331.4961z" fill-rule="evenodd"/><path fill="#33500b" d="m479.9987 420.61942l52.86612 -199.55905l52.86615 199.55905z" fill-rule="evenodd"/><path stroke="#595959" stroke-width="1.0" stroke-linejoin="round" stroke-linecap="butt" d="m479.9987 420.61942l52.86612 -199.55905l52.86615 199.55905z" fill-rule="evenodd"/><path fill="#33500b" d="m604.698 420.61417l46.015747 -150.61417l46.015747 150.61417z" fill-rule="evenodd"/><path stroke="#595959" stroke-width="1.0" stroke-linejoin="round" stroke-linecap="butt" d="m604.698 420.61417l46.015747 -150.61417l46.015747 150.61417z" fill-rule="evenodd"/><path fill="#33500b" d="m765.5276 420.9239l39.84247 -142.51968l39.84253 142.51968z" fill-rule="evenodd"/><path stroke="#595959" stroke-width="1.0" stroke-linejoin="round" stroke-linecap="butt" d="m765.5276 420.9239l39.84247 -142.51968l39.84253 142.51968z" fill-rule="evenodd"/><path fill="#9eb299" d="m-4.5669293 438.8609l0 0c0 -57.394135 108.47401 -103.921265 242.28346 -103.921265l0 0c133.80946 0 242.28346 46.52713 242.28346 103.921265l0 0c0 57.394104 -108.474 103.921265 -242.28346 103.921265l0 0c-133.80946 0 -242.28346 -46.52716 -242.28346 -103.921265z" fill-rule="evenodd"/><path stroke="#595959" stroke-width="1.0" stroke-linejoin="round" stroke-linecap="butt" d="m-4.5669293 438.8609l0 0c0 -57.394135 108.47401 -103.921265 242.28346 -103.921265l0 0c133.80946 0 242.28346 46.52713 242.28346 103.921265l0 0c0 57.394104 -108.474 103.921265 -242.28346 103.921265l0 0c-133.80946 0 -242.28346 -46.52716 -242.28346 -103.921265z" fill-rule="evenodd"/><path fill="#33500b" d="m349.03543 420.61942l52.86615 -199.55905l52.86615 199.55905z" fill-rule="evenodd"/><path stroke="#595959" stroke-width="1.0" stroke-linejoin="round" stroke-linecap="butt" d="m349.03543 420.61942l52.86615 -199.55905l52.86615 199.55905z" fill-rule="evenodd"/><path fill="#33500b" d="m230.60498 424.74277l52.86615 -199.55904l52.86615 199.55904z" fill-rule="evenodd"/><path stroke="#595959" stroke-width="1.0" stroke-linejoin="round" stroke-linecap="butt" d="m230.60498 424.74277l52.86615 -199.55904l52.86615 199.55904z" fill-rule="evenodd"/><path fill="#3d630e" d="m400.56168 424.74802l61.417328 -235.71652l61.417297 235.71652z" fill-rule="evenodd"/><path stroke="#595959" stroke-width="1.0" stroke-linejoin="round" stroke-linecap="butt" d="m400.56168 424.74802l61.417328 -235.71652l61.417297 235.71652z" fill-rule="evenodd"/><path fill="#5e8616" d="m-0.010498688 420.61942l960.0 0l0 119.40158l-960.0 0z" fill-rule="evenodd"/><path stroke="#595959" stroke-width="1.0" stroke-linejoin="round" stroke-linecap="butt" d="m-0.010498688 420.61942l960.0 0l0 119.40158l-960.0 0z" fill-rule="evenodd"/><path fill="#583a12" d="m113.32284 46.514435l28.535423 0l0 410.3622l-28.535423 0z" fill-rule="evenodd"/><path stroke="#595959" stroke-width="1.0" stroke-linejoin="round" stroke-linecap="butt" d="m113.32284 46.514435l28.535423 0l0 410.3622l-28.535423 0z" fill-rule="evenodd"/><path fill="#583a12" d="m15.0131235 180.12335l49.322838 0l0 323.937l-49.322838 0z" fill-rule="evenodd"/><path stroke="#595959" stroke-width="1.0" stroke-linejoin="round" stroke-linecap="butt" d="m15.0131235 180.12335l49.322838 0l0 323.937l-49.322838 0z" fill-rule="evenodd"/><path fill="#507810" d="m37.417324 93.70604l90.17323 -62.23622l90.173225 62.23622z" fill-rule="evenodd"/><path stroke="#595959" stroke-width="1.0" stroke-linejoin="round" stroke-linecap="butt" d="m37.417324 93.70604l90.17323 -62.23622l90.173225 62.23622z" fill-rule="evenodd"/><path fill="#507810" d="m37.417324 155.94226l90.17323 -62.23622l90.173225 62.23622z" fill-rule="evenodd"/><path stroke="#595959" stroke-width="1.0" stroke-linejoin="round" stroke-linecap="butt" d="m37.417324 155.94226l90.17323 -62.23622l90.173225 62.23622z" fill-rule="evenodd"/><path fill="#507810" d="m37.417324 218.17848l90.17323 -62.23622l90.173225 62.23622z" fill-rule="evenodd"/><path stroke="#595959" stroke-width="1.0" stroke-linejoin="round" stroke-linecap="butt" d="m37.417324 218.17848l90.17323 -62.23622l90.173225 62.23622z" fill-rule="evenodd"/><path fill="#507810" d="m37.56168 279.49606l90.17323 -62.23622l90.17323 62.23622z" fill-rule="evenodd"/><path stroke="#595959" stroke-width="1.0" stroke-linejoin="round" stroke-linecap="butt" d="m37.56168 279.49606l90.17323 -62.23622l90.17323 62.23622z" fill-rule="evenodd"/><path fill="#507810" d="m40.17323 342.6509l90.17322 -62.236206l90.17323 62.236206z" fill-rule="evenodd"/><path stroke="#595959" stroke-width="1.0" stroke-linejoin="round" stroke-linecap="butt" d="m40.17323 342.6509l90.17322 -62.236206l90.17323 62.236206z" fill-rule="evenodd"/><path fill="#507810" d="m-50.498688 381.17584l90.17323 -62.236206l90.17322 62.236206z" fill-rule="evenodd"/><path stroke="#595959" stroke-width="1.0" stroke-linejoin="round" stroke-linecap="butt" d="m-50.498688 381.17584l90.17323 -62.236206l90.17322 62.236206z" fill-rule="evenodd"/><path fill="#507810" d="m-50.498688 301.1181l90.17323 -62.236206l90.17322 62.236206z" fill-rule="evenodd"/><path stroke="#595959" stroke-width="1.0" stroke-linejoin="round" stroke-linecap="butt" d="m-50.498688 301.1181l90.17323 -62.236206l90.17322 62.236206z" fill-rule="evenodd"/><path fill="#507810" d="m-50.498688 221.06036l90.17323 -62.23622l90.17322 62.23622z" fill-rule="evenodd"/><path stroke="#595959" stroke-width="1.0" stroke-linejoin="round" stroke-linecap="butt" d="m-50.498688 221.06036l90.17323 -62.23622l90.17322 62.23622z" fill-rule="evenodd"/><path fill="#583a12" d="m845.2126 89.580055l28.535461 0l0 410.3622l-28.535461 0z" fill-rule="evenodd"/><path stroke="#595959" stroke-width="1.0" stroke-linejoin="round" stroke-linecap="butt" d="m845.2126 89.580055l28.535461 0l0 410.3622l-28.535461 0z" fill-rule="evenodd"/><path fill="#507810" d="m769.30707 397.17584l90.17322 -62.236206l90.17328 62.236206z" fill-rule="evenodd"/><path stroke="#595959" stroke-width="1.0" stroke-linejoin="round" stroke-linecap="butt" d="m769.30707 397.17584l90.17322 -62.236206l90.17328 62.236206z" fill-rule="evenodd"/><path fill="#507810" d="m769.30707 311.49606l90.17322 -62.23622l90.17328 62.23622z" fill-rule="evenodd"/><path stroke="#595959" stroke-width="1.0" stroke-linejoin="round" stroke-linecap="butt" d="m769.30707 311.49606l90.17322 -62.23622l90.17328 62.23622z" fill-rule="evenodd"/><path fill="#507810" d="m769.30707 221.06036l90.17322 -62.23622l90.17328 62.23622z" fill-rule="evenodd"/><path stroke="#595959" stroke-width="1.0" stroke-linejoin="round" stroke-linecap="butt" d="m769.30707 221.06036l90.17322 -62.23622l90.17328 62.23622z" fill-rule="evenodd"/><path fill="#507810" d="m769.30707 140.13649l90.17322 -62.23623l90.17328 62.23623z" fill-rule="evenodd"/><path stroke="#595959" stroke-width="1.0" stroke-linejoin="round" stroke-linecap="butt" d="m769.30707 140.13649l90.17322 -62.23623l90.17328 62.23623z" fill-rule="evenodd"/><path fill="#3d630e" d="m265.0974 420.61417l74.787384 -181.73227l74.787415 181.73227z" fill-rule="evenodd"/><path stroke="#595959" stroke-width="1.0" stroke-linejoin="round" stroke-linecap="butt" d="m265.0974 420.61417l74.787384 -181.73227l74.787415 181.73227z" fill-rule="evenodd"/><path fill="#3d630e" d="m199.59987 425.75854l39.842514 -119.40158l39.84253 119.40158z" fill-rule="evenodd"/><path stroke="#595959" stroke-width="1.0" stroke-linejoin="round" stroke-linecap="butt" d="m199.59987 425.75854l39.842514 -119.40158l39.84253 119.40158z" fill-rule="evenodd"/><path fill="#3d630e" d="m545.0907 425.75854l39.84253 -119.40158l39.84247 119.40158z" fill-rule="evenodd"/><path stroke="#595959" stroke-width="1.0" stroke-linejoin="round" stroke-linecap="butt" d="m545.0907 425.75854l39.84253 -119.40158l39.84247 119.40158z" fill-rule="evenodd"/><path fill="#3d630e" d="m675.6235 420.51968l39.84253 -119.40158l39.84253 119.40158z" fill-rule="evenodd"/><path stroke="#595959" stroke-width="1.0" stroke-linejoin="round" stroke-linecap="butt" d="m675.6235 420.51968l39.84253 -119.40158l39.84253 119.40158z" fill-rule="evenodd"/></g></svg>