<?xml version='1.0' encoding='utf-8'?>
<svg xmlns="http://www.w3.org/2000/svg" width="1323.7mm" height="1828mm" version="1.1" viewBox="0 0 1323.7 1828"><defs><clipPath id="a"><path d="m-7317 2036.7h1323.7v1828h-1323.7z" fill="#fff" stop-color="#000000" stroke-linecap="square" stroke-width="8.7" style="paint-order:markers stroke fill"/></clipPath></defs><g transform="translate(1813.7 -2036.7)"><g transform="translate(5503.3)"><path d="m-7317 2036.7h1323.7v1828h-1323.7z" fill="#fff" stop-color="#000000" stroke-linecap="square" stroke-width="8.7" style="paint-order:markers stroke fill"/><g transform="matrix(.93993 0 0 .9576 -399.76 125.11)" clip-path="url(#a)" stroke-width="1.054"><path d="m-5979.9 2198.7c-1.2668-0.2983-7.5635-3.492-13.99-7.0964-13.175-7.3907-20.28-10.518-50.17-22.083-11.544-4.4666-36.731-15.585-55.972-24.708-19.24-9.1232-42.328-19.269-51.306-22.546-8.9798-3.2775-24.984-9.1124-35.566-12.967-10.581-3.8542-29.21-11.273-41.394-16.487-29.454-12.602-36.062-14.668-49.208-15.387-9.4758-0.518-11.926-0.2401-20.99 2.3741-5.6437 1.628-20.104 7.3006-32.132 12.606-48.578 21.424-76.738 29.787-109.08 32.395-22.668 1.8279-43.091 0.012-116.84-10.397-79.065-11.158-83.854-12.413-176.08-46.164-62.788-22.979-99.62-27.066-157.42-17.468-13.192 2.1908-22.032 4.5363-40.229 10.674-51.352 17.32-67.941 21.124-124.96 28.657-18.062 2.3861-42.448 6.0635-54.189 8.1721-35.231 6.3264-66.492 11.106-95.46 14.596-30.505 3.6752-37.234 4.6437-69.964 10.07-59.106 9.7993-63.694 9.8816-72.296 1.299-2.8923-2.8849-2.9143-3.063-2.7997-22.031 0.1398-18.023 0.8262-31.604 4.5324-86.261 1.6691-24.603 3.2036-31.169 7.4149-31.75 1.383-0.1902 2.5137 0.089 2.5137 0.6217 0 0.532 3.8041-0.2868 8.4537-1.8199 8.3499-2.7528 8.8388-2.7847 39.937-2.6047 18.621 0.1025 44.824 1.1025 64.134 2.4349 28.442 1.962 43.623 2.2674 117.77 2.3688 55.275 0.077 91.462-0.3287 103.2-1.1536 28.564-2.0074 190.58-2.4814 454.77-1.3304 157.39 0.6855 265.8 0.6842 310.18 0 56.701-0.88 77.562-0.7611 123.6 0.7034 122.01 3.8814 119.44 3.6957 131.37 9.4969 3.0973 1.5066 7.2096 4.5517 9.1379 6.7673 3.4238 3.9334 3.498 4.2738 3.1759 14.48-0.3282 10.555-0.9501 17.515-4.4055 49.977-2.2119 20.742-1.7042 37.324 1.7417 56.851 3.2796 18.593 4.9003 35.074 4.6539 47.353-0.1397 5.8639 0.1399 10.968 0.5219 11.343 1.2807 1.1933 0.716 5.1212-1.0467 7.2955-0.9366 1.1562-1.7117 3.6388-1.7117 5.5172 0 5.3874-3.6433 7.6746-9.8846 6.2057z" fill="#1c262a"/><path d="m-6315.8 2412.7c-24.786-2.0574-44.875-11.133-73.96-33.413-7.9836-6.1162-18.226-13.446-22.763-16.288-9.58-6.0035-28.221-14.875-41.152-19.583-4.9622-1.8074-16.369-6.6372-25.348-10.733-12.764-5.8227-18.74-9.3314-27.401-16.087-17.874-13.94-31.874-30.524-46.318-54.868-15.359-25.886-22.565-34.598-34.64-41.884-10.456-6.3086-19.866-8.6751-34.482-8.6715-12.18 0-17.699 0.8134-50.142 7.3602-11.157 2.2516-17.857 2.9532-28.568 2.9923-17.141 0.064-23.442-1.1856-44.073-8.7283-20.58-7.5242-29.882-9.3981-42.799-8.6226-19.794 1.1882-32.598 5.6829-85.918 30.159-63.006 28.923-69.221 31.387-82.665 32.783-9.3204 0.9683-22.853-0.8608-35.511-4.7991-16.786-5.2227-49.968-19.69-81.009-35.32-50.683-25.52-75.696-36.05-99.117-41.728-15.13-3.6678-38.52-3.6999-49.841-0.064-19.961 6.4029-56.802 35.486-77.053 60.826-9.9367 12.435-35.339 38.705-40.094 41.466-2.3274 1.3518-5.8701-1.0526-7.2304-4.9104-2.3937-6.7771-3.6804-25.369-3.391-49.008 0.3712-30.474 0.3174-45.979-0.2205-65.514-0.6337-23.029 0.923-25.177 23.566-32.32 11.32-3.5714 17.17-4.5697 45.822-7.8179 10.902-1.2356 33.99-4.3996 51.306-7.0301 17.316-2.6305 46.964-6.5057 65.884-8.6114 42.583-4.7397 30.4-2.8947 132.6-20.08 51.911-8.7286 81.694-15.342 121.6-27 47.62-13.911 60.853-15.019 102.47-8.5781 25.426 3.9344 38.53 8.4625 72.445 25.03 10.584 5.1707 24.031 11.118 29.883 13.217 20.127 7.2185 48.8 12.915 82.054 16.302 9.3008 0.9463 23.73 2.4197 32.068 3.2727 8.3365 0.8531 25.238 3.2798 37.559 5.3929 12.321 2.1129 44.066 6.7585 70.547 10.324 51.316 6.9084 65.908 7.8308 78.662 4.9725 3.7395-0.8378 13.358-2.8274 21.375-4.421 24.242-4.8187 35.44-9.7606 61.25-27.03 7.678-5.1379 17.868-11.15 22.646-13.36 8.153-3.7727 9.3306-4.0145 19.24-3.952 12.981 0.077 17.687 1.5249 45.113 13.836 11.141 5.0005 33.897 14.342 50.57 20.758 37.649 14.489 48.558 19.226 73.093 31.74 23.066 11.765 33.084 15.961 65.665 27.499 28.549 10.111 48.827 18.831 61.902 26.619 15.095 8.9927 14.814 8.5173 15.401 25.948 0.2743 8.1847-0.1398 35.104-0.8268 59.821-0.7299 24.716-1.6455 58.096-2.0407 74.177-0.8128 33.034-1.3088 35.283-7.7098 35.053-2.0689-0.077-8.2224 0.4057-13.674 1.0641-9.9006 1.1985-44.923 3.5194-84.539 5.6036-12.452 0.6549-41.862 0.8275-72.298 0.4232-40.674-0.5397-56.863-0.3287-78.126 1.0244-14.752 0.9388-36.266 1.9803-47.81 2.3158-11.544 0.3352-23.35 0.7699-26.237 0.9656-2.8853 0.1957-9.9809-0.04-15.768-0.5167z" fill="#303d3f"/><path d="m-7343.8 2512.1c-0.1397-0.1484-0.2742-15.864-0.441-34.923-0.2474-28.846-0.716-37.464-2.852-51.437-3.2547-21.309-4.4872-63.212-2.4491-83.216 1.9021-18.674 6.1235-35.817 11.162-45.326 5.4689-10.324 12.948-17.724 32.627-32.282 17.596-13.017 29.844-24.181 44.872-40.901 5.2387-5.8287 12.24-12.575 15.56-14.992 3.3177-2.417 6.5033-5.3144 7.0777-6.4387 2.1193-4.1526 29.278-10.745 44.263-10.745 10.127 0 22.738 3.8265 37.483 11.372 18.729 9.585 33.289 16.344 51.633 23.969 9.4412 3.9243 25.299 10.964 35.24 15.645 11.715 5.5159 24.843 10.611 37.314 14.484 10.583 3.2856 24.708 7.7109 31.389 9.834 32.069 10.189 49.574 11.939 66.561 6.6523 21.207-6.5993 69.3-28.545 100.49-45.855 14.276-7.9229 18.796-9.8338 26.356-11.146 14.96-2.5955 50.194 9.1687 55.615 18.569l2.3055 3.9994-2.865 2.8313c-1.5755 1.5573-9.0056 5.7792-16.51 9.3819-7.7635 3.7263-19.086 10.445-26.261 15.584-18.033 12.914-30.591 20.871-45.264 28.68-7.0545 3.7545-19.911 11.065-28.568 16.246-27.661 16.552-39.566 20.95-67.117 24.794-25.682 3.5837-33.419 5.2689-57.747 12.579-24.928 7.4906-37.985 10.248-61.125 12.911-32.492 3.7389-49.424 7.2299-62.968 12.983-5.1839 2.202-19.634 11.429-39.598 25.284-22.955 15.93-37.985 25.401-55.707 35.101-27.037 14.798-45.507 26.004-65.946 40.008-7.543 5.1689-22.623 14.349-33.511 20.4-10.887 6.0514-21.135 12.177-22.773 13.613-2.4023 2.1044-7.5695 3.57-8.2484 2.3398z" fill="#697b80"/><path d="m-7337.3 2643.1c-2.8617-2.2857-3.2985-3.7701-5.3366-18.138-1.2259-8.6068-2.683-26.126-3.2479-38.93-0.5642-12.805-1.392-24.122-1.8385-25.15-1.2119-2.7744 1.5137-19.667 4.2629-26.489 3.4759-8.6281 11.197-18.522 19.134-24.519 6.437-4.8635 28.59-17.433 86.213-48.917 27.78-15.179 68.35-38.998 78.127-45.87 3.8481-2.7047 12.244-8.8946 18.658-13.755 25.526-19.346 33.599-22.461 72.749-28.067 10.281-1.4723 29.339-4.8528 42.353-7.5123 13.012-2.6596 33.367-6.1008 45.232-7.6475 32.002-4.1715 47.51-7.8867 72.297-17.32 41.258-15.702 74.396-33.165 107.67-56.74 47.965-33.982 83.303-51.058 118.84-57.427 45.189-8.0983 72.299-4.786 90.312 11.034 8.6393 7.5881 13.75 15.082 25.399 37.245 5.5146 10.49 11.942 21.754 14.284 25.031 10.177 14.238 22.278 22.108 52.971 34.452 41.852 16.831 47.708 20.18 69.792 39.931 8.6688 7.7528 19.163 16.466 23.321 19.363 16.646 11.597 41.298 23.329 61.373 29.206 25.92 7.5883 48.536 8.2026 90.364 2.4543 15.164-2.0839 36.678-4.3632 47.81-5.0651 20.826-1.3137 66.885-0.8136 93.701 1.018 14.15 0.9669 34.301 0.3671 69.38-2.0619 14.704-1.0181 20.466-1.8566 24.434-3.5552 4.3329-1.8542 8.5872-2.3436 25.654-2.9511 11.254-0.4002 21.36-0.3007 22.46 0.2222 2.7822 1.321 4.0655 6.9803 4.8728 21.488 0.3874 6.8491 2.0425 22.686 3.6923 35.193 2.8993 21.977 2.9751 24.103 2.2575 63.348-0.4141 22.334-0.9918 41.43-1.2946 42.436-0.3013 1.0052-2.3346 2.3725-4.505 3.0379-3.6336 1.114-5.1333 0.7214-18.893-4.94-23.523-9.6789-30.608-12.122-50.22-17.317-10.101-2.6753-29.122-8.2301-42.269-12.344-27.677-8.66-37.002-10.211-52.021-8.6496-14.109 1.4664-24.512 4.2486-46.727 12.496-10.379 3.8537-24.859 8.4306-32.18 10.171-14.982 3.5629-18.73 4.8537-39.318 13.534-44.614 18.812-93.282 28.23-104.85 20.289-8.7883-6.0341-60.173-24.594-95.038-34.328-42.876-11.97-65.829-16.942-81.241-17.597-16.085-0.6844-22.566 0.2442-47.293 6.7754-34.604 9.1395-57.893 12.773-82.618 12.889-25.079 0.1151-36.471-3.8261-52.928-18.322-4.7394-4.1743-13.351-12.706-19.139-18.96-19.933-21.539-36.055-35.762-45.708-40.32-3.626-1.7128-3.2818-1.6885-89.204-6.2494-88.236-4.6839-150.05-8.4514-170.95-10.42-20.147-1.897-56.877 7.587-80.445 20.771-13.432 7.5146-18.583 11.551-41.867 32.806-46.181 42.16-64.79 56.803-98.532 77.535-26.173 16.081-36.154 23.041-53.998 37.648-14.69 12.026-20.028 13.917-25.948 9.1873z" fill="#6e8186"/><path d="m-7333.8 2789.3c-4.6055-1.9709-6.9417-4.5263-10.091-11.037-3.5825-7.4034-4.172-26.182-1.638-52.197 1.5261-15.668 1.653-21.142 0.6062-26.487-3.932-20.137 8.1628-35.407 39.724-50.151 18.657-8.7154 35.327-20.376 63.516-44.426 23.318-19.895 33.001-27.31 60.635-46.432 40.611-28.103 44.026-30.611 57.72-42.379 26.013-22.354 38.608-29.474 62.671-35.425 13.33-3.297 14.41-3.3915 39.361-3.4462 25.285-0.051 74.095 2.8388 136.43 8.0899 14.109 1.1881 38.51 2.6227 54.222 3.187 34.91 1.2535 41.765 2.6052 54.562 10.754 7.6699 4.8842 12.654 9.5927 25.333 23.936 24.744 27.992 36.837 38.876 50.703 45.632 4.7282 2.3034 6.6328 2.543 19.24 2.4214 9.8706-0.089 18.631-0.9771 29.735-2.9948 10.386-1.8867 23.083-3.2306 37.315-3.9491 24.501-1.2368 32.372-2.4928 51.306-8.1848 11.785-3.5431 14.822-4.0338 25.07-4.0505 10.767-0.015 12.734 0.3337 25.654 4.5757 7.6959 2.5268 18.452 6.0552 23.904 7.8406 5.4512 1.7854 30.114 7.876 54.805 13.535 65.881 15.098 69.964 16.476 69.964 23.61 0 5.4281-2.2543 5.7798-40.812 6.3626-39.84 0.6023-49.372 1.6244-77.544 8.3175-31.304 7.4365-47.003 14.012-63.873 26.749-15.355 11.594-49.034 43.739-63.885 60.977-18.461 21.426-21.964 24.96-32.415 32.703-10.595 7.8496-16.676 10.797-23.043 11.169-2.7007 0.1573-5.4672 0.6062-6.1476 0.9962-2.1667 1.2432-10.919-1.6323-19.351-6.3588-23.598-13.226-41.061-20.666-124.78-53.162-45.627-17.709-51.57-19.754-62.58-21.528-8.3408-1.3441-9.9711-1.3507-11.524-0.051-0.9919 0.8351-5.5296 2.9443-10.076 4.6854-4.5473 1.7415-14.225 6.4506-21.508 10.465-28.318 15.61-128.85 61.289-153.27 69.64-20.31 6.9464-55.595 11.978-73.373 10.462-4.4895-0.3826-16.558-1.6947-26.82-2.9154-23.409-2.7848-49.174-2.9622-65.3-0.45-24.032 3.745-34.935 7.2554-54.263 17.472-24.22 12.803-32.565 15.304-40.188 12.041z" fill="#91a6ab"/><path d="m-7138.1 3345.1c-11.522-0.6357-15.307-1.2764-19.805-3.3551-11.19-5.1721-12.741-13.884-5.6609-31.807 2.3538-5.9557 5.8798-14.971 7.8383-20.033 1.957-5.0624 8.8141-19.681 15.238-32.486 6.422-12.805 15.002-30.467 19.065-39.25 9.4978-20.531 25.542-52.76 35.097-70.495 19.533-36.262 52.831-88.26 74.932-117.01 8.743-11.373 20.598-27.014 26.345-34.756 12.799-17.24 28.937-32.737 41.674-40.016 4.9869-2.8504 18.385-8.9629 29.772-13.583 46.311-18.791 58.19-26.288 104.59-66.005 27.18-23.268 48.983-40.776 68.618-55.102 42.419-30.95 89.758-66.189 100.43-74.76 18.221-14.636 51.573-45.905 64.823-60.777 40.755-45.741 56.608-52.655 151.52-66.075 10.128-1.4321 35.961-5.5983 53.639-8.6505 6.7334-1.1625 19.59-3.3719 28.569-4.9095 11.832-2.0261 17.45-3.5126 20.414-5.4021 2.986-1.9031 7.3919-3.0581 16.325-4.2791 6.7292-0.9196 15.659-2.1401 19.843-2.7118 4.1838-0.5717 12.842-2.4599 19.24-4.1963 45.496-12.347 58.916-16.312 74.334-21.961 9.6048-3.5188 27.236-9.6417 39.181-13.607 20.879-6.9301 22.149-7.211 32.798-7.2577 12.213-0.051 14.39 0.4755 38.48 9.3566 20.098 7.4095 50.094 16.389 68.215 20.42 8.3381 1.8548 19.358 4.302 24.488 5.4382 5.6346 1.2484 11.149 3.2872 13.924 5.1494 6.6754 4.4789 11.282 12.681 12.038 21.436 0.9779 11.332-4.619 113.88-6.7841 124.28-1.3362 6.4085-3.9047 10.362-6.7335 10.362-1.157 0-9.7963-7.4698-19.504-16.865-19.196-18.576-29.114-26.704-50.078-41.041-7.6958-5.2632-18.495-13.026-23.997-17.252-20.317-15.6-25.804-19.624-36.415-26.702-5.9664-3.9806-12.499-8.0296-14.515-8.9983-5.5889-2.6838-18.852-2.2796-32.515 0.9912-22.2 5.3141-66.41 16.924-76.797 20.167-14.154 4.4188-31.314 12.752-38.776 18.83-7.4635 6.078-25.382 26.244-49.022 55.168-23.423 28.659-51.973 62.507-63.481 75.26-15.473 17.148-54.213 54.683-69.679 67.511-8.0105 6.6442-19.663 16.536-25.895 21.982s-18.044 14.988-26.248 21.206c-16.737 12.683-25.012 20.615-31.493 30.189-12.238 18.076-32.222 43.617-40.166 51.335-14.494 14.082-27.048 19.594-55.435 24.341-7.1616 1.1971-19.674 4.3306-27.805 6.9628-12.692 4.1083-16.925 6.1384-29.914 14.348-20.708 13.088-27.681 20.479-43.82 46.442-4.4205 7.1128-12.935 20.242-18.919 29.175-38.545 57.541-65.281 114.85-74.134 158.91-4.626 23.016-12.96 50.376-17.629 57.877-4.0876 6.5648-7.287 7.2551-29.368 6.3356-12.122-0.5038-21.708-0.322-28.676 0.5437-8.1989 1.0193-14.262 1.0129-27.986-0.04-16.181-1.2343-18.836-1.1614-34.766 0.949-19.402 2.57-31.422 2.8361-48.795 1.0808-9.8006-0.99-14.715-0.8902-27.739 0.5627-35.311 3.9408-63.424 4.7297-98.87 2.7748z" fill="#ccdbdf"/><path d="m-7328.8 3348.4c-9.4386-1.5873-14.178-4.3334-15-8.6913-0.3873-2.0846-1.3496-5.2519-2.1387-7.0387-1.7521-3.9977-2.7008-150.53-1.1156-171.64 0.5647-7.445 1.5495-20.358 2.1951-28.696 0.6476-8.338 1.4535-29.779 1.7934-47.646 0.3442-17.867 1.1984-41.014 1.9036-51.437 0.9773-14.491 0.9226-26.977-0.2473-53.061-1.2674-28.3-1.2674-38.168 0-57.934 0.8536-13.103 1.9196-39.66 2.3687-59.017 0.8952-38.597 1.3799-41.572 8.3171-51.299 2.0312-2.848 6.3726-7.0375 9.6463-9.3097 15.36-10.661 59.827-27.13 83.746-31.016 12.889-2.0944 33.059-1.5254 49.306 1.3907 16.102 2.8897 55.374 2.6282 76.961-0.5117 41.316-6.0104 68.868-14.83 96.1-30.762 15.273-8.9362 26.906-14.187 40.426-18.25 21.818-6.5561 30.197-11.248 50.045-28.024 7.2305-6.1109 13.464-10.239 20.04-13.272 8.7113-4.018 10.342-4.4023 18.673-4.4023 10.963 0 16.574 1.7324 45.827 14.146 11.224 4.7629 34.049 13.693 50.724 19.844 19.259 7.1046 43.505 17.248 66.466 27.808 34.794 16 43.728 21.131 43.728 25.11 0 2.6558-7.3504 8.5668-22.738 18.285-15.476 9.7744-55.93 37.068-72.352 48.815-5.8035 4.1512-21.283 16.886-34.399 28.299-25.836 22.482-34.287 28.862-54.782 41.36-19.372 11.813-38.27 21.169-64.101 31.74-12.506 5.1177-26.202 11.441-30.437 14.052-9.7937 6.0383-21.711 17.683-32.134 31.399-46.291 60.912-46.592 61.344-65.383 93.593-6.4209 11.018-18.626 32.946-27.122 48.729-8.4962 15.783-19.944 36.249-25.438 45.481-19.481 32.728-28.386 51.404-41.05 86.089-8.2703 22.655-31.971 83.284-33.651 86.089-0.6202 1.0282-3.0687 1.7263-6.6856 1.9022-3.1414 0.1524-11.22 1.2367-17.955 2.409-19.458 3.3873-30.14 4.2292-61.219 4.8258-16.032 0.3067-34.923 0.7865-41.978 1.0641-7.0541 0.2777-15.317 0.089-18.362-0.427z" fill="#a1b9bd"/><path d="m-5974.7 3148.9c0-9.7148-0.3441-12.892-1.2947-12.004-0.909 0.8402-1.0468 4.8589-0.4518 13.211 0.468 6.602 1.0468 12.004 1.2948 12.004 0.2474 0 0.4571-5.945 0.4571-13.211z"/><path d="m-6001.5 3356.3c-29.776-4.4241-73.434-7.9911-117.19-9.5751-34.734-1.2571-64.027-4.0848-89.204-8.6102-15.359-2.7608-33.832-4.7726-54.805-5.9687-11.223-0.6407-28.015-1.8627-37.314-2.7171-38.166-3.5065-51.429-4.1174-90.953-4.1901-59.45-0.1151-107.43 2.4958-148.04 8.0387-27.12 3.7018-53.759 4.5151-122.26 3.7326-97.965-1.1191-103.3-1.1242-123.31-0.1023-16.134 0.8211-19.509 0.7059-24.5-0.834-14.619-4.5089-20.562-18.622-14.432-34.269 1.2806-3.2759 3.8545-11.316 5.714-17.868 8.8335-31.128 18.983-54.296 52.407-119.64 28.641-55.994 48.749-85.039 72.196-104.29 16.077-13.198 30.316-19.12 63.118-26.254 50.347-10.95 58.559-16.594 86.152-59.207 22.693-35.045 27.396-39.757 70.383-70.505 30.773-22.012 74.368-62.598 104.74-97.51 11.851-13.622 27.774-31.896 35.383-40.608 7.6104-8.7121 21.461-26.561 30.78-39.664 19.334-27.182 27.906-37.293 38.956-45.945 23.284-18.23 48.294-26.187 107.27-34.124 27.5-3.7015 31.553-3.6381 40.173 0.6281 6.7524 3.3421 32.817 19.72 48.848 30.695 11.739 8.038 27.61 20.454 39.677 31.042 5.754 5.0498 14.924 12.301 20.375 16.114 14.735 10.307 29.381 24.251 32.947 31.368 1.6406 3.2758 4.2848 12.291 5.8739 20.033 2.7652 13.463 2.8976 16.014 3.03 58.475 0.1398 24.419 0.7299 60.235 1.4448 79.591 1.7175 46.274 0.3711 432.89-1.5163 435-0.6887 0.7712-2.4186 1.4015-3.8439 1.4015-1.4255 0-3.5383 0.9719-4.6964 2.1597-1.1571 1.1882-3.994 2.647-6.3021 3.2424-4.0784 1.0513-15.195 1.2458-21.106 0.3672z" fill="#e1e8ea"/><path d="m-7260.3 3588c-8.3268-1.0335-22.27-1.5693-39.736-1.5275-25.595 0.064-27.161-0.051-32.059-2.3516-9.1212-4.2803-12.557-11.347-13.549-27.863-0.511-8.4633-0.2044-11.439 1.7121-16.784 4.7723-13.311 4.469-46.039-0.8541-92.586-3.951-34.54-4.4802-41.332-4.2678-54.731 0.1936-11.853 0.4949-13.601 3.4496-19.199 3.9476-7.4899 9.352-11.819 18.081-14.481 5.556-1.6944 10.792-2.0378 33.408-2.1912 54.127-0.3671 170.27-2.5106 171.98-3.1741 0.9639-0.3763 49.252-1.0796 107.29-1.564 108.38-0.9042 118.51-1.2483 205.23-6.9546 61.505-4.0479 73.739-4.2676 121.27-2.1779 30.471 1.3395 51.668 1.6789 74.627 1.1944 35.999-0.7584 45.632-1.4505 86.184-6.188 31.568-3.6877 37.993-3.8754 115.79-3.3853 55.847 0.3517 81.971 1.5022 103.53 4.5584 56.342 7.9863 83.624 11.035 145.18 16.222 56.86 4.7916 120.09 8.7281 149.84 9.3288 26.98 0.5449 38.385 1.6806 42.703 4.2523 3.9072 2.327 4.0105 6.5313 0.4141 16.693-2.951 8.3326-3.1564 9.8291-2.0145 14.692 1.6223 6.9117 1.363 46.86-0.3603 54.105-1.0607 4.4705-0.7299 10.43 1.8154 33.066 4.0036 35.591 5.2182 73.425 2.5464 79.321-1.0053 2.2334-2.3222 4.0608-2.9116 4.0608-0.5922 0-2.4406 1.9222-4.114 4.2716-3.867 5.4276-10.864 9.2339-21.196 11.533-10.678 2.3754-53.623 2.3842-117.17 0.024-25.332-0.9413-62.851-2.2252-83.373-2.854-61.946-1.8977-101.75-5.718-175.49-16.843-63.63-9.5996-81.888-10.965-123.02-9.1955-34.314 1.476-46.05 2.4698-81.043 6.8644-24.888 3.1256-30.185 3.4414-57.72 3.4419-17.254 2e-4 -34.84-0.5667-40.813-1.3153-5.7716-0.724-21.514-2.547-34.982-4.052-92.666-10.355-94.618-10.362-147.51-0.5257-99.689 18.541-177.54 24.774-284.52 22.782-14.72-0.2737-23.817 0.1024-32.649 1.3645-30.778 4.3849-61.573 5.1644-85.706 2.1693z" fill="#c6dbdf"/><path d="m-6859.2 3919c-55.09-3.6103-185.27-6.6984-290.35-6.8879-55.642-0.1025-73.023 0.2392-98.045 1.9159-24.737 1.6575-32.446 1.8146-41.313 0.8404-6.3091-0.6933-11.427-0.7956-12.149-0.2443-0.6885 0.523-4.4248 1.5299-8.3074 2.236-11.284 2.0521-20.616-1.2944-27.221-9.7622-6.6963-8.5858-7.3999-18.962-3.0359-44.817 4.6524-27.567 8.9249-67.954 9.0045-85.109 0-8.636-0.7848-27.397-1.8315-41.691-5.918-80.758-6.7981-96.745-5.9993-108.83 0.4518-6.8492 1.5385-14.42 2.4114-16.825 0.8676-2.4045 1.4739-5.8156 1.3362-7.5802-0.2313-3.028 0.1399-3.2656 5.436-4.2282 3.76-0.6739 13.65-0.5564 29.152 0.3442 53.642 3.119 78.904 2.8637 161.06-1.6267 25.616-1.4 40.288-1.5478 78.71-0.793 66.993 1.3174 114.75 1.123 130.6-0.5308 16.872-1.7604 37.573-5.5447 60.052-10.979 37.877-9.156 59.472-11.46 97.95-10.454 24.365 0.637 38.98 1.5165 95.618 5.7505 37.36 2.7929 99.375 2.5633 134.1-0.4962 48.581-4.2809 64.818-5.0358 109.03-5.0694 48.552-0.04 43.554-0.4671 106.11 9.1244 42.616 6.534 52.723 7.844 95.617 12.396 27.121 2.8781 51.815 4.4078 97.368 6.0314 63.09 2.2485 68.982 2.316 86.872 0.9938 26.592-1.9662 63.598-1.7944 68.845 0.3196 5.2666 2.1223 8.4299 5.0566 7.6037 7.0548-0.3603 0.8595-0.1398 2.5124 0.5649 3.6726 2.882 5.0036 3.3645 19.613 1.5782 47.926-1.157 18.412-1.7025 42.898-1.5454 70.007 0.1397 22.93 0 69.02-0.2905 102.42-0.511 57.991-0.6331 60.9-2.83 64.431-4.0751 6.5522-7.7759 7.4746-27.19 6.7755-14.556-0.5245-19.952-0.2083-37.416 2.1872-36.884 5.0601-36.153 5.0237-143.43 7.17-91.831 1.8374-110.63 2.0193-132.04 1.2765-12.187-0.4221-21.684-0.3006-23.12 0.2983-1.5454 0.6432-29.67 0.3042-76.686-0.9235-40.836-1.0654-103.11-2.0875-138.38-2.2696-35.273-0.1819-77.146-0.8697-93.052-1.5284-31.135-1.2889-36.774-1.0231-78.36 3.6977-56.513 6.4152-84.333 7.1837-136.43 3.7698z" fill="#c6dbdf"/></g></g></g></svg>