<?xml version='1.0' encoding='utf-8'?>
<svg xmlns="http://www.w3.org/2000/svg" enable-background="new 0 0 3000 4500" version="1.0" viewBox="0 0 3e3 4500"> <style type="text/css"> .st0{fill:#EFE1CB;} .st1{fill:#E1AF6A;} .st2{fill:#DBBE9E;} .st3{fill:#D2AF85;} .st4{fill:#CB9B77;} .st5{fill:#A86143;} .st6{fill:#8A4734;} </style> <rect class="st0" width="3e3" height="4500"/> <circle class="st1" cx="1500" cy="1953" r="801.5"/> <path class="st2" d="m3e3 2018.3c-244.6 15.2-509.5 67.4-720 197.4-539 332.9-1256.6-17.1-1354.3-76.4-86.2-52.4-534.7-376.9-925.7-217.8v1620.8c287.7 160.7 587.8 322.5 643 330 80.8 10.9 1554.1-359.7 2357-569.6v-1284.4z"/> <path class="st3" d="m0 3442.7 2096 375.3s487.9-174.9 904-356.9v-989.6c-328.6 134.8-877 347.8-1093.9 361.3-318.9 19.8-870.1-409.8-1207.1-464.7-187.8-30.6-478.5 60.1-699 146.3v928.3z"/> <path class="st4" d="m3e3 3787.5-1348 137.5s-1034.2-180.6-1652-303.8v-534c223.3-2.7 470.1-36.2 659-127.7 435-210.8 1084 25.4 1575 141.1 262.7 61.9 552.9 5.6 766-60v746.9z"/> <path class="st5" d="m3e3 4363.7v-1044.4c-93.4 100.7-314.3 206.4-409 198.7-219-17.9-366-222.2-838-236.2s-693 161.6-1085 242.4c-231.4 47.7-492.7 2.8-668-42v1017.8h2634.3c121.6-43.1 246.7-89.5 365.7-136.3z"/> <path class="st6" d="m3e3 4053.8c-336.5-86.5-745.8-251.5-1155.2-316.9-674.2-107.6-980.8 146-1421.8 282.4-184 56.9-323.2 17.2-423-48.5v529.2h3e3v-446.2z"/> </svg>